<svg id="visual" viewBox="0 0 900 450" width="900" height="450" xmlns="http://www.w3.org/2000/svg" xmlns:xlink="http://www.w3.org/1999/xlink" version="1.1"><rect x="0" y="0" width="900" height="450" fill="#d4d4d8"></rect><path d="M0 136L12.5 130.3C25 124.7 50 113.3 75 110C100 106.7 125 111.3 150 117.7C175 124 200 132 225 131C250 130 275 120 300 113.2C325 106.3 350 102.7 375 103.2C400 103.7 425 108.3 450 113.3C475 118.3 500 123.7 525 120C550 116.3 575 103.7 600 100.5C625 97.3 650 103.7 675 102.5C700 101.3 725 92.7 750 91.2C775 89.7 800 95.3 825 97.2C850 99 875 97 887.5 96L900 95L900 0L887.5 0C875 0 850 0 825 0C800 0 775 0 750 0C725 0 700 0 675 0C650 0 625 0 600 0C575 0 550 0 525 0C500 0 475 0 450 0C425 0 400 0 375 0C350 0 325 0 300 0C275 0 250 0 225 0C200 0 175 0 150 0C125 0 100 0 75 0C50 0 25 0 12.5 0L0 0Z" fill="#71717a"></path><path d="M0 95L12.5 94.3C25 93.7 50 92.3 75 95.7C100 99 125 107 150 107C175 107 200 99 225 97C250 95 275 99 300 101C325 103 350 103 375 106.2C400 109.3 425 115.7 450 119C475 122.3 500 122.7 525 117C550 111.3 575 99.7 600 91.3C625 83 650 78 675 76.7C700 75.3 725 77.7 750 78.5C775 79.3 800 78.7 825 81.7C850 84.7 875 91.3 887.5 94.7L900 98L900 0L887.5 0C875 0 850 0 825 0C800 0 775 0 750 0C725 0 700 0 675 0C650 0 625 0 600 0C575 0 550 0 525 0C500 0 475 0 450 0C425 0 400 0 375 0C350 0 325 0 300 0C275 0 250 0 225 0C200 0 175 0 150 0C125 0 100 0 75 0C50 0 25 0 12.5 0L0 0Z" fill="#616169"></path><path d="M0 58L12.5 58.8C25 59.7 50 61.3 75 64.3C100 67.3 125 71.7 150 75.3C175 79 200 82 225 84.2C250 86.3 275 87.7 300 83.5C325 79.3 350 69.7 375 71.7C400 73.7 425 87.3 450 90.3C475 93.3 500 85.7 525 81.7C550 77.7 575 77.3 600 78.5C625 79.7 650 82.3 675 81.5C700 80.7 725 76.3 750 72.8C775 69.3 800 66.7 825 71.3C850 76 875 88 887.5 94L900 100L900 0L887.5 0C875 0 850 0 825 0C800 0 775 0 750 0C725 0 700 0 675 0C650 0 625 0 600 0C575 0 550 0 525 0C500 0 475 0 450 0C425 0 400 0 375 0C350 0 325 0 300 0C275 0 250 0 225 0C200 0 175 0 150 0C125 0 100 0 75 0C50 0 25 0 12.5 0L0 0Z" fill="#525258"></path><path d="M0 64L12.5 64.3C25 64.7 50 65.3 75 67.2C100 69 125 72 150 74.5C175 77 200 79 225 77.7C250 76.3 275 71.7 300 65C325 58.3 350 49.7 375 46.7C400 43.7 425 46.3 450 50.7C475 55 500 61 525 62.3C550 63.7 575 60.3 600 62.2C625 64 650 71 675 74.8C700 78.7 725 79.3 750 74.5C775 69.7 800 59.3 825 57.7C850 56 875 63 887.5 66.5L900 70L900 0L887.5 0C875 0 850 0 825 0C800 0 775 0 750 0C725 0 700 0 675 0C650 0 625 0 600 0C575 0 550 0 525 0C500 0 475 0 450 0C425 0 400 0 375 0C350 0 325 0 300 0C275 0 250 0 225 0C200 0 175 0 150 0C125 0 100 0 75 0C50 0 25 0 12.5 0L0 0Z" fill="#434348"></path><path d="M0 57L12.5 53C25 49 50 41 75 37.5C100 34 125 35 150 35.8C175 36.7 200 37.3 225 39.7C250 42 275 46 300 47C325 48 350 46 375 42.5C400 39 425 34 450 32.3C475 30.7 500 32.3 525 34.2C550 36 575 38 600 41.8C625 45.7 650 51.3 675 54.3C700 57.3 725 57.7 750 58C775 58.3 800 58.7 825 57.8C850 57 875 55 887.5 54L900 53L900 0L887.5 0C875 0 850 0 825 0C800 0 775 0 750 0C725 0 700 0 675 0C650 0 625 0 600 0C575 0 550 0 525 0C500 0 475 0 450 0C425 0 400 0 375 0C350 0 325 0 300 0C275 0 250 0 225 0C200 0 175 0 150 0C125 0 100 0 75 0C50 0 25 0 12.5 0L0 0Z" fill="#353539"></path><path d="M0 15L12.5 15C25 15 50 15 75 18.3C100 21.7 125 28.3 150 29.8C175 31.3 200 27.7 225 28C250 28.3 275 32.7 300 31.5C325 30.3 350 23.7 375 23C400 22.3 425 27.7 450 30.8C475 34 500 35 525 32.2C550 29.3 575 22.7 600 20.5C625 18.3 650 20.7 675 21.3C700 22 725 21 750 19.3C775 17.7 800 15.3 825 16.3C850 17.3 875 21.7 887.5 23.8L900 26L900 0L887.5 0C875 0 850 0 825 0C800 0 775 0 750 0C725 0 700 0 675 0C650 0 625 0 600 0C575 0 550 0 525 0C500 0 475 0 450 0C425 0 400 0 375 0C350 0 325 0 300 0C275 0 250 0 225 0C200 0 175 0 150 0C125 0 100 0 75 0C50 0 25 0 12.5 0L0 0Z" fill="#27272a"></path></svg>